<?xml version="1.0" encoding="UTF-8"?>
<svg version="1.1" xmlns="http://www.w3.org/2000/svg" width="512" height="512">
<path d="M0 0 C4.64118386 0.4299193 8.03858446 1.82115608 12.11328125 4.02734375 C13.27029541 4.64955811 14.42730957 5.27177246 15.61938477 5.9128418 C16.85071139 6.58720189 18.08174397 7.2620991 19.3125 7.9375 C20.58307532 8.62768528 21.85382851 9.31754323 23.12475586 10.00708008 C32.54108382 15.13254343 41.86050735 20.39464799 51 26 C51.75539063 26.45938965 52.51078125 26.9187793 53.2890625 27.39208984 C69.41923397 37.23372744 84.37685761 47.87477948 98 61 C99.19882812 62.10408203 99.19882812 62.10408203 100.421875 63.23046875 C109.63115961 71.94753298 116.30788563 82.23434637 121 94 C123.25378302 91.15484534 124.93174841 88.29966361 126.5625 85.0625 C147.10703325 47.06017371 191.95862733 25.12677 228.5625 5.6875 C229.63943115 5.10572998 230.7163623 4.52395996 231.82592773 3.92456055 C232.83341064 3.39644775 233.84089355 2.86833496 234.87890625 2.32421875 C235.7716626 1.85072998 236.66441895 1.37724121 237.58422852 0.8894043 C240 0 240 0 244 1 C244 22.12 244 43.24 244 65 C254.23 62.03 264.46 59.06 275 56 C285.81342363 66.81342363 292.20606549 80.81412964 292.49820566 96.06696439 C292.49290016 99.09703733 292.42848714 102.12255084 292.36230469 105.15185547 C292.35890885 107.37181919 292.3608411 109.59179633 292.36761475 111.81175232 C292.37101898 117.76396009 292.30111814 123.71318931 292.21672726 129.66471243 C292.14104895 135.91182417 292.13461096 142.15902523 292.12042236 148.40652466 C292.08541833 159.53540397 291.999052 170.66306744 291.88470975 181.79139449 C291.7815373 191.8869051 291.70681628 201.9821987 291.65917969 212.078125 C291.65602701 212.74441909 291.65287432 213.41071318 291.64962611 214.09719799 C291.63396274 217.44065831 291.61882617 220.78412059 291.60388327 224.12758422 C291.47888855 251.75247033 291.26819871 279.3761588 291 307 C289.56098057 306.84755652 288.12218497 306.69299925 286.68348694 306.53755188 C285.8822342 306.45170995 285.08098146 306.36586802 284.25544834 306.27742481 C281.60558702 305.95148639 279.0790313 305.40302945 276.49609375 304.73046875 C275.52051514 304.48329102 274.54493652 304.23611328 273.53979492 303.98144531 C272.5160376 303.71944336 271.49228027 303.45744141 270.4375 303.1875 C258.04519541 300.12503921 245.63840532 297.78068409 233 296 C231.75138184 295.82210937 231.75138184 295.82210937 230.47753906 295.640625 C197.50763457 291.14655283 161.34987567 291.52993135 133 311 C129.07635528 314.32825098 125.85255459 317.72116811 123 322 C122.01 322 121.02 322 120 322 C117 318.66666667 117 318.66666667 117 316 C116.41476563 315.73445313 115.82953125 315.46890625 115.2265625 315.1953125 C112.94080444 313.96822133 111.31372146 312.59032969 109.375 310.875 C84.41297203 291.33772648 46.98521289 291.75460635 17.1875 295.125 C-2.36490517 297.52265178 -21.93428015 301.43176255 -40.98046875 306.43359375 C-43.93436852 306.98768879 -45.21190847 306.82413866 -48 306 C-48.1501189 277.02629313 -48.23092982 248.05309724 -48.23059464 219.07898426 C-48.23080192 216.39372055 -48.23126612 213.708457 -48.23193359 211.02319336 C-48.2320907 210.35581355 -48.23224781 209.68843375 -48.23240969 209.00083032 C-48.23595041 198.90518747 -48.27455338 188.81006545 -48.33251953 178.71459961 C-48.39952451 166.97895079 -48.42381337 155.24409829 -48.39809489 143.5082733 C-48.38595044 137.30135912 -48.39432055 131.09608782 -48.4539566 124.88941383 C-48.50957249 119.03060189 -48.50747552 113.17447132 -48.46369362 107.31558609 C-48.4574468 105.18127669 -48.47114982 103.0467858 -48.50784111 100.91278267 C-48.77409276 84.38269068 -44.31712393 73.57892668 -35 60 C-34.34 59.01 -33.68 58.02 -33 57 C-25.8706101 57.61430423 -19.33494834 59.49811668 -12.5 61.5625 C-11.39140625 61.89185547 -10.2828125 62.22121094 -9.140625 62.56054688 C-6.42535856 63.36810457 -3.71194685 64.18137729 -1 65 C-1.00222061 64.20042374 -1.00444122 63.40084747 -1.00672913 62.57704163 C-1.02673092 55.05740361 -1.04197355 47.53777841 -1.05181217 40.01812077 C-1.05704026 36.15179882 -1.06413654 32.28549879 -1.07543945 28.41918945 C-1.086271 24.69096599 -1.0922774 20.96276366 -1.09487724 17.23452568 C-1.09673101 15.80910344 -1.10035071 14.38368241 -1.10573006 12.95826912 C-1.11294393 10.96836592 -1.11340808 8.97844166 -1.11352539 6.98852539 C-1.115746 5.85379288 -1.11796661 4.71906036 -1.12025452 3.54994202 C-1 1 -1 1 0 0 Z " fill="#80E0E7" transform="translate(134,94)"/>
<path d="M0 0 C0.22811076 30.85448356 0.40508788 61.70877436 0.51065329 92.5638997 C0.52316041 96.20633817 0.53610363 99.84877497 0.54931641 103.49121094 C0.55193951 104.21635646 0.55456261 104.94150199 0.55726521 105.68862163 C0.60078257 117.43127346 0.67962968 129.1734359 0.77152796 140.91579737 C0.86503352 152.96398801 0.9205854 165.01192231 0.94088495 177.06046093 C0.95337724 183.82843993 0.9834271 190.59539833 1.05730057 197.36301041 C1.12509316 203.7310221 1.14613315 210.09746488 1.13107681 216.46580315 C1.13383178 218.80480281 1.15377618 221.143854 1.19205475 223.48254204 C1.46732661 241.16559763 1.46732661 241.16559763 -2.12678909 245.65884018 C-4.76284086 247.29101618 -7.02516933 248.16905021 -10 249 C-11.67708441 249.76935153 -13.34567545 250.55785609 -15 251.375 C-18.69918699 253 -18.69918699 253 -21 253 C-21 253.66 -21 254.32 -21 255 C-21.72445312 255.12117188 -22.44890625 255.24234375 -23.1953125 255.3671875 C-24.16210938 255.53476562 -25.12890625 255.70234375 -26.125 255.875 C-27.07632813 256.03742188 -28.02765625 256.19984375 -29.0078125 256.3671875 C-35.12820599 257.66157881 -40.69231533 260.08231015 -46.375 262.625 C-47.16011963 262.97546387 -47.94523926 263.32592773 -48.75415039 263.68701172 C-56.02919246 266.96374155 -63.18394428 270.45261336 -70.2734375 274.11230469 C-71.79041824 274.89224558 -73.31641784 275.65459239 -74.84375 276.4140625 C-91.67981783 285.08565165 -106.67193134 296.98748576 -117.6953125 312.453125 C-118.12585938 312.96359375 -118.55640625 313.4740625 -119 314 C-119.66 314 -120.32 314 -121 314 C-122.02629668 275.26654759 -122.53227744 236.52191525 -122.88767433 197.77717972 C-122.97904363 187.90652269 -123.08635409 178.03653418 -123.23120117 168.16650391 C-123.35963204 159.41391281 -123.45923078 150.66154849 -123.52434534 141.90824878 C-123.55939921 137.318048 -123.60781841 132.72897602 -123.69120979 128.13937759 C-123.76867561 123.84912205 -123.80699074 119.56020257 -123.81675339 115.26927567 C-123.82685368 113.71161955 -123.85046637 112.15397289 -123.88972664 110.59677887 C-124.35478105 91.37990168 -114.27953292 76.33739117 -101.484375 62.5546875 C-78.04894072 38.45598621 -47.54989373 21.57217192 -18.05380249 6.01522827 C-16.27678457 5.07664701 -14.50516204 4.12787354 -12.73364258 3.17895508 C-11.65107178 2.61587646 -10.56850098 2.05279785 -9.453125 1.47265625 C-8.49567383 0.97000244 -7.53822266 0.46734863 -6.55175781 -0.05053711 C-3.70831342 -1.1085313 -2.80467319 -0.85235372 0 0 Z " fill="#55C6DD" transform="translate(378,95)"/>
<path d="M0 0 C9.94624491 9.45926263 16.90100713 23.47450726 17.4430542 37.18746948 C17.51952747 41.18019039 17.44951954 45.15985504 17.36230469 49.15185547 C17.35890885 51.37181919 17.3608411 53.59179633 17.36761475 55.81175232 C17.37101898 61.76396009 17.30111814 67.71318931 17.21672726 73.66471243 C17.14104895 79.91182417 17.13461096 86.15902523 17.12042236 92.40652466 C17.08541833 103.53540397 16.999052 114.66306744 16.88470975 125.79139449 C16.7815373 135.8869051 16.70681628 145.9821987 16.65917969 156.078125 C16.65602701 156.74441909 16.65287432 157.41071318 16.64962611 158.09719799 C16.63396274 161.44065831 16.61882617 164.78412059 16.60388327 168.12758422 C16.47888855 195.75247033 16.26819871 223.3761588 16 251 C14.56098057 250.84755652 13.12218497 250.69299925 11.68348694 250.53755188 C10.8822342 250.45170995 10.08098146 250.36586802 9.25544834 250.27742481 C6.60558702 249.95148639 4.0790313 249.40302945 1.49609375 248.73046875 C0.52051514 248.48329102 -0.45506348 248.23611328 -1.46020508 247.98144531 C-2.4839624 247.71944336 -3.50771973 247.45744141 -4.5625 247.1875 C-16.95480459 244.12503921 -29.36159468 241.78068409 -42 240 C-43.24861816 239.82210937 -43.24861816 239.82210937 -44.52246094 239.640625 C-69.78171895 236.19757807 -97.98407327 235.08663873 -121.95703125 244.9140625 C-125.3070343 246.10957065 -128.48239476 246.52962255 -132 247 C-134.16210346 247.69041874 -134.16210346 247.69041874 -135.9375 248.5625 C-136.948125 249.036875 -137.95875 249.51125 -139 250 C-139 247 -139 247 -137.375 245.125 C-117.77586563 227.5889324 -80.76256138 201.1560165 -54.109375 199.859375 C-53.41328125 199.90578125 -52.7171875 199.9521875 -52 200 C-52 199.34 -52 198.68 -52 198 C-51.18208984 197.65388672 -51.18208984 197.65388672 -50.34765625 197.30078125 C-45.37062824 195.14832298 -40.63852335 192.76746065 -35.9453125 190.05078125 C-34 189 -34 189 -31 188 C-31.01252808 187.0236409 -31.02505615 186.0472818 -31.03796387 185.04133606 C-31.20054978 172.29849127 -31.3533853 159.55553829 -31.5 146.8125 C-31.51187725 145.78067722 -31.5237545 144.74885445 -31.53599167 143.68576431 C-31.90526722 111.35242539 -32.09226453 79.0229425 -32.0625 46.6875 C-32.06164398 45.75069523 -32.06078796 44.81389046 -32.05990601 43.84869766 C-32.04880427 32.56577698 -32.02918896 21.28288837 -32 10 C-27.35489214 8.22302713 -22.75073462 6.55320073 -17.96875 5.17578125 C-16.91171875 4.86962891 -15.8546875 4.56347656 -14.765625 4.24804688 C-13.68796875 3.93931641 -12.6103125 3.63058594 -11.5 3.3125 C-10.39140625 2.99216797 -9.2828125 2.67183594 -8.140625 2.34179688 C-5.42788294 1.55837568 -2.71434315 0.7778521 0 0 Z " fill="#63A4D7" transform="translate(409,150)"/>
<path d="M0 0 C7.26817906 0.63240283 14.00653244 2.53976167 21 4.5625 C22.73443359 5.0565332 22.73443359 5.0565332 24.50390625 5.56054688 C27.33747994 6.36846665 30.16939857 7.18173943 33 8 C33.00146656 8.91367718 33.00293312 9.82735435 33.00444412 10.76871872 C33.0414716 32.98514004 33.10043228 55.2014083 33.18390274 77.41770554 C33.22373751 88.16128546 33.25610743 98.90479166 33.27099609 109.6484375 C33.28398963 119.01096936 33.31089536 128.37333931 33.35461307 137.73578 C33.37727968 142.69463639 33.39290757 147.65329271 33.39188385 152.61220551 C33.3911403 157.2776937 33.40896776 161.94273875 33.44116783 166.60811234 C33.4497012 168.3221726 33.45139357 170.03628238 33.44580269 171.75035477 C33.43919259 174.08789627 33.45700923 176.42401538 33.48101807 178.76141357 C33.48470524 180.07035961 33.48839241 181.37930565 33.49219131 182.72791672 C34.08501708 186.54781059 34.98140469 187.67652841 38 190 C40.39151086 191.35922119 40.39151086 191.35922119 43.05078125 192.4453125 C44.04795166 192.87739014 45.04512207 193.30946777 46.07250977 193.75463867 C47.14170654 194.20685791 48.21090332 194.65907715 49.3125 195.125 C50.42101318 195.60364502 51.52952637 196.08229004 52.67163086 196.57543945 C56.11068925 198.05916076 59.55479876 199.53060686 63 201 C79.22689012 207.94973378 95.12956956 215.10292127 110.5625 223.6875 C111.20566162 224.04400635 111.84882324 224.4005127 112.51147461 224.76782227 C119.07439468 228.48043243 124.65336117 232.65336117 130 238 C131.17539084 238.8912001 132.36436932 239.76461397 133.5625 240.625 C137.31638058 243.38499601 140.796611 246.37873849 144.25 249.5 C145.01098999 250.17603271 145.01098999 250.17603271 145.78735352 250.86572266 C148.32813335 253.19123906 150.26442863 255.39949649 152.171875 258.28125 C153.77607408 261.26469328 153.77607408 261.26469328 157 262 C156.67 262.99 156.34 263.98 156 265 C155.01 265 154.02 265 153 265 C150 261.66666667 150 261.66666667 150 259 C149.41476563 258.73445313 148.82953125 258.46890625 148.2265625 258.1953125 C145.94080444 256.96822133 144.31372146 255.59032969 142.375 253.875 C117.41297203 234.33772648 79.98521289 234.75460635 50.1875 238.125 C30.63509483 240.52265178 11.06571985 244.43176255 -7.98046875 249.43359375 C-10.93436852 249.98768879 -12.21190847 249.82413866 -15 249 C-15.1501189 220.02629313 -15.23092982 191.05309724 -15.23059464 162.07898426 C-15.23080192 159.39372055 -15.23126612 156.708457 -15.23193359 154.02319336 C-15.2320907 153.35581355 -15.23224781 152.68843375 -15.23240969 152.00083032 C-15.23595041 141.90518747 -15.27455338 131.81006545 -15.33251953 121.71459961 C-15.39952451 109.97895079 -15.42381337 98.24409829 -15.39809489 86.5082733 C-15.38595044 80.30135912 -15.39432055 74.09608782 -15.4539566 67.88941383 C-15.50957249 62.03060189 -15.50747552 56.17447132 -15.46369362 50.31558609 C-15.4574468 48.18127669 -15.47114982 46.0467858 -15.50784111 43.91278267 C-15.77409276 27.38269068 -11.31712393 16.57892668 -2 3 C-1.34 2.01 -0.68 1.02 0 0 Z " fill="#508DCE" transform="translate(101,151)"/>
<path d="M0 0 C7.26817906 0.63240283 14.00653244 2.53976167 21 4.5625 C22.73443359 5.0565332 22.73443359 5.0565332 24.50390625 5.56054688 C27.33747994 6.36846665 30.16939857 7.18173943 33 8 C32.67 8.99 32.34 9.98 32 11 C16.44672131 6.96311475 16.44672131 6.96311475 10.02734375 4.61328125 C7.38746267 3.81470451 4.7204714 3.43711542 2 3 C2.04526877 3.83511099 2.04526877 3.83511099 2.09145206 4.6870929 C2.82077209 18.45645633 3.12163952 32.16231074 3.02172852 45.94873047 C3.01154617 47.9322435 3.00185704 49.9157591 2.99261475 51.89927673 C2.96652872 57.20569235 2.93367609 62.5120456 2.89946485 67.81841421 C2.86472288 73.39301012 2.83640318 78.96763887 2.80735779 84.54226685 C2.75158531 95.06364653 2.69016462 105.58498509 2.62663645 116.1063205 C2.55450316 128.09932348 2.48878559 140.09235904 2.42356598 152.0854013 C2.28943864 176.72364317 2.1473875 201.36183413 2 226 C2.79059814 225.99836349 3.58119629 225.99672699 4.39575195 225.99504089 C8.03466715 225.98847923 11.67358111 225.98445879 15.3125 225.98046875 C16.55580078 225.97785034 17.79910156 225.97523193 19.08007812 225.97253418 C30.41565352 225.96323663 41.68834638 226.27787644 53 227 C53.66358521 227.04147156 54.32717041 227.08294312 55.01086426 227.12567139 C73.71627017 228.3049137 91.94375131 229.62392794 110 235 C111.34727995 235.38543237 112.69491203 235.76963701 114.04296875 236.15234375 C115.01878906 236.43207031 115.99460938 236.71179688 117 237 C117 237.66 117 238.32 117 239 C117.94875 238.896875 118.8975 238.79375 119.875 238.6875 C125.18857028 238.63294589 129.48906833 241.45863005 134 244 C134.33 243.01 134.66 242.02 135 241 C135.61875 241.63615234 135.61875 241.63615234 136.25 242.28515625 C139.45080729 245.53597615 142.69412531 248.62623009 146.1875 251.5625 C148.65767448 253.67502374 150.58858085 255.61804533 152.3125 258.375 C153.79159062 261.27886877 153.79159062 261.27886877 157 262 C156.67 262.99 156.34 263.98 156 265 C155.01 265 154.02 265 153 265 C150 261.66666667 150 261.66666667 150 259 C149.41476563 258.73445313 148.82953125 258.46890625 148.2265625 258.1953125 C145.94080444 256.96822133 144.31372146 255.59032969 142.375 253.875 C117.41297203 234.33772648 79.98521289 234.75460635 50.1875 238.125 C30.63509483 240.52265178 11.06571985 244.43176255 -7.98046875 249.43359375 C-10.93436852 249.98768879 -12.21190847 249.82413866 -15 249 C-15.1501189 220.02629313 -15.23092982 191.05309724 -15.23059464 162.07898426 C-15.23080192 159.39372055 -15.23126612 156.708457 -15.23193359 154.02319336 C-15.2320907 153.35581355 -15.23224781 152.68843375 -15.23240969 152.00083032 C-15.23595041 141.90518747 -15.27455338 131.81006545 -15.33251953 121.71459961 C-15.39952451 109.97895079 -15.42381337 98.24409829 -15.39809489 86.5082733 C-15.38595044 80.30135912 -15.39432055 74.09608782 -15.4539566 67.88941383 C-15.50957249 62.03060189 -15.50747552 56.17447132 -15.46369362 50.31558609 C-15.4574468 48.18127669 -15.47114982 46.0467858 -15.50784111 43.91278267 C-15.77409276 27.38269068 -11.31712393 16.57892668 -2 3 C-1.34 2.01 -0.68 1.02 0 0 Z " fill="#9D89E6" transform="translate(101,151)"/>
<path d="M0 0 C9.55232567 8.90971764 15.94262687 23.28143441 16.4430542 36.18746948 C16.51919546 40.18019357 16.44951955 44.15985497 16.36230469 48.15185547 C16.35890885 50.37181919 16.3608411 52.59179633 16.36761475 54.81175232 C16.37101898 60.76396009 16.30111814 66.71318931 16.21672726 72.66471243 C16.14104895 78.91182417 16.13461096 85.15902523 16.12042236 91.40652466 C16.08541833 102.53540397 15.999052 113.66306744 15.88470975 124.79139449 C15.7815373 134.8869051 15.70681628 144.9821987 15.65917969 155.078125 C15.65602701 155.74441909 15.65287432 156.41071318 15.64962611 157.09719799 C15.63396274 160.44065831 15.61882617 163.78412059 15.60388327 167.12758422 C15.47888855 194.75247033 15.26819871 222.3761588 15 250 C13.56098057 249.84755652 12.12218497 249.69299925 10.68348694 249.53755188 C9.8822342 249.45170995 9.08098146 249.36586802 8.25544834 249.27742481 C5.60558702 248.95148639 3.0790313 248.40302945 0.49609375 247.73046875 C-0.47948486 247.48329102 -1.45506348 247.23611328 -2.46020508 246.98144531 C-3.4839624 246.71944336 -4.50771973 246.45744141 -5.5625 246.1875 C-17.95480459 243.12503921 -30.36159468 240.78068409 -43 239 C-44.24861816 238.82210937 -44.24861816 238.82210937 -45.52246094 238.640625 C-70.98315821 235.17012022 -99.22404561 234.12719129 -123.34765625 244.109375 C-126 245 -126 245 -129 244 C-127.82630859 243.49339844 -127.82630859 243.49339844 -126.62890625 242.9765625 C-125.61699219 242.53054688 -124.60507812 242.08453125 -123.5625 241.625 C-122.55316406 241.18414062 -121.54382813 240.74328125 -120.50390625 240.2890625 C-117.87856453 239.24923714 -117.87856453 239.24923714 -117 237 C-90.09150458 225.46086142 -56.05507139 225.66428682 -27.375 224.8125 C-24.89189486 224.73079112 -22.40882143 224.64811263 -19.92578125 224.56445312 C-13.95083772 224.36519332 -7.97562359 224.1776358 -2 224 C-1.99576806 222.85163949 -1.99153612 221.70327898 -1.98717594 220.52011967 C-1.88413779 192.62173691 -1.7754097 164.72338079 -1.66066074 136.82504368 C-1.64964918 134.14304678 -1.63865893 131.46104979 -1.62768555 128.77905273 C-1.62495724 128.11240795 -1.62222894 127.44576317 -1.61941796 126.75891703 C-1.57528825 115.95080327 -1.5346735 105.14267899 -1.49534739 94.33454681 C-1.45494674 83.25249444 -1.41071829 72.17046139 -1.36312145 61.0884375 C-1.33649486 54.86043819 -1.31164124 48.63244286 -1.29092598 42.40442085 C-1.27139816 36.54980011 -1.24726617 30.69521691 -1.21950912 24.84062958 C-1.21011819 22.68506741 -1.20245033 20.52949698 -1.19658089 18.37392235 C-1.18835426 15.44463889 -1.17408759 12.5154474 -1.15821838 9.5861969 C-1.15724028 8.72142827 -1.15626217 7.85665964 -1.15525442 6.9656859 C-1.11412121 1.11412121 -1.11412121 1.11412121 0 0 Z " fill="#BACBEA" transform="translate(410,151)"/>
<path d="M0 0 C0.22811076 30.85448356 0.40508788 61.70877436 0.51065329 92.5638997 C0.52316041 96.20633817 0.53610363 99.84877497 0.54931641 103.49121094 C0.55193951 104.21635646 0.55456261 104.94150199 0.55726521 105.68862163 C0.60078257 117.43127346 0.67962968 129.1734359 0.77152796 140.91579737 C0.86503352 152.96398801 0.9205854 165.01192231 0.94088495 177.06046093 C0.95337724 183.82843993 0.9834271 190.59539833 1.05730057 197.36301041 C1.12509316 203.7310221 1.14613315 210.09746488 1.13107681 216.46580315 C1.13383178 218.80480281 1.15377618 221.143854 1.19205475 223.48254204 C1.46732661 241.16559763 1.46732661 241.16559763 -2.12678909 245.65884018 C-4.76284086 247.29101618 -7.02516933 248.16905021 -10 249 C-11.67708441 249.76935153 -13.34567545 250.55785609 -15 251.375 C-18.69918699 253 -18.69918699 253 -21 253 C-21 253.66 -21 254.32 -21 255 C-24.3 255.66 -27.6 256.32 -31 257 C-28.54101264 253.31151897 -25.98730134 252.57993244 -22 251.125 C-15.72866703 248.80084141 -10.04937061 246.0246853 -4 243 C-3.67 163.47 -3.34 83.94 -3 2 C-17.355 9.425 -17.355 9.425 -32 17 C-33.98 17.99 -35.96 18.98 -38 20 C-38.66 19.34 -39.32 18.68 -40 18 C-35.51628443 15.61493146 -31.03222602 13.23050917 -26.54785156 10.84667969 C-25.02301798 10.03598406 -23.4982775 9.2251133 -21.97363281 8.4140625 C-19.77954287 7.24693252 -17.58511662 6.08043702 -15.390625 4.9140625 C-14.7113092 4.55253082 -14.03199341 4.19099915 -13.33209229 3.81851196 C-11.55669109 2.8753039 -9.77848562 1.93737919 -8 1 C-7.27006836 0.56864746 -6.54013672 0.13729492 -5.78808594 -0.30712891 C-3.49920755 -1.19405366 -2.31098899 -0.66494064 0 0 Z " fill="#90E3EE" transform="translate(378,95)"/>
<path d="M0 0 C16.41002062 6.306422 32.04167951 15.80748284 47 25 C47.75974121 25.46229004 48.51948242 25.92458008 49.30224609 26.40087891 C65.42810978 36.23933108 80.38073598 46.8785161 94 60 C94.79921875 60.73605469 95.5984375 61.47210938 96.421875 62.23046875 C104.54416998 69.91864106 111.75916826 79.59068572 116 90 C115.505 91.485 115.505 91.485 115 93 C114.45472656 91.97261719 113.90945312 90.94523437 113.34765625 89.88671875 C108.64476948 81.1806353 103.71956095 73.33666349 97 66 C96.24203125 65.17242187 95.4840625 64.34484375 94.703125 63.4921875 C83.87942551 52.20865764 71.23557439 43.5897645 58.06201172 35.30664062 C56.08149311 34.05163996 54.11832226 32.77391134 52.16015625 31.484375 C46.45488234 27.73478078 40.77780962 24.15528286 34.57421875 21.265625 C31.50582912 19.7570389 28.54435155 18.08868397 25.56176758 16.41796875 C22.83863268 14.91068127 20.09459135 13.44825514 17.34375 11.9921875 C16.3846875 11.48042969 15.425625 10.96867187 14.4375 10.44140625 C12.45157969 9.38242481 10.46187296 8.33051842 8.46875 7.28515625 C7.52 6.77597656 6.57125 6.26679687 5.59375 5.7421875 C4.73458984 5.2869873 3.87542969 4.83178711 2.99023438 4.36279297 C1 3 1 3 0 0 Z " fill="#C5F8FB" transform="translate(138,95)"/>
<path d="M0 0 C-2.07288724 2.07288724 -3.41030534 2.72016808 -6.0859375 3.8125 C-7.34325684 4.33432861 -7.34325684 4.33432861 -8.62597656 4.86669922 C-9.5331543 5.24068848 -10.44033203 5.61467773 -11.375 6 C-32.45320193 14.89542118 -52.50893615 25.05427753 -70 40 C-70.7115625 40.59039062 -71.423125 41.18078125 -72.15625 41.7890625 C-73.79658915 43.16252107 -75.40289754 44.57649563 -77 46 C-77 46.33 -77 46.66 -77 47 C-75.9275 46.484375 -74.855 45.96875 -73.75 45.4375 C-70.74745101 43.99396683 -69.16753501 43.94181906 -66 45 C-67.37671875 45.72703125 -67.37671875 45.72703125 -68.78125 46.46875 C-76.22150937 50.49796156 -82.42200041 54.48655949 -88 61 C-89 59 -89 59 -88.47265625 56.83203125 C-86.40053831 52.84718907 -83.53206016 49.91278772 -80.4375 46.6875 C-79.80344238 46.02032959 -79.16938477 45.35315918 -78.51611328 44.66577148 C-60.70186593 26.07847014 -38.59317642 14.65597373 -15.3125 4.1875 C-14.1361499 3.65350586 -12.9597998 3.11951172 -11.74780273 2.56933594 C-10.65153564 2.08625977 -9.55526855 1.60318359 -8.42578125 1.10546875 C-6.96265503 0.45807739 -6.96265503 0.45807739 -5.4699707 -0.20239258 C-3 -1 -3 -1 0 0 Z " fill="#9DDDE9" transform="translate(347,352)"/>
<path d="M0 0 C6.38691689 2.1289723 9.45384612 10.78324066 12.35412598 16.48712158 C17.15843562 27.16399324 16.48238359 38.17352025 16.171875 49.6484375 C16.14942488 52.12801961 16.13237591 54.60765586 16.12042236 57.08731079 C16.07514094 63.5362897 15.95775284 69.98189661 15.82397461 76.42956543 C15.70003618 83.03981942 15.64616261 89.65063167 15.5859375 96.26171875 C15.45819333 109.17589736 15.25645354 122.08776735 15 135 C14.67 135 14.34 135 14 135 C12.86859333 124.20712058 12.87727393 113.46652018 12.89246559 102.62733078 C12.89603717 97.15254778 12.87014747 91.67786106 12.84960938 86.203125 C12.82528919 79.27302327 12.80962358 72.34322454 12.82495117 65.41308594 C12.83664521 59.77626217 12.81914317 54.14017616 12.78250694 48.50346756 C12.77393243 46.36902069 12.77590878 44.23450246 12.789011 42.10007858 C12.97594133 26.10415728 12.97594133 26.10415728 6 12 C5.19068681 10.61432365 4.39685312 9.21938648 3.625 7.8125 C3.08875 6.884375 2.5525 5.95625 2 5 C1.34 5.66 0.68 6.32 0 7 C0 4.69 0 2.38 0 0 Z " fill="#B5EEF8" transform="translate(410,153)"/>
<path d="M0 0 C0.33 0 0.66 0 1 0 C1 26.73 1 53.46 1 81 C-9.09602321 79.87821964 -9.09602321 79.87821964 -13.50390625 78.73046875 C-14.47972656 78.48329102 -15.45554687 78.23611328 -16.4609375 77.98144531 C-17.48445313 77.71944336 -18.50796875 77.45744141 -19.5625 77.1875 C-37.49773826 72.74634261 -55.6298886 69.89691368 -74 68 C-74 67.67 -74 67.34 -74 67 C-50.63210153 66.01838466 -29.01831596 71.46789271 -6.54589844 77.42089844 C-3.94760885 78.11089946 -3.94760885 78.11089946 -1 78 C-1.00222061 77.36202988 -1.00444122 76.72405975 -1.00672913 76.0667572 C-1.02921628 69.29947482 -1.04408311 62.53220338 -1.05493164 55.76489258 C-1.0598958 53.25447151 -1.06666932 50.74405323 -1.07543945 48.23364258 C-1.13021685 32.12586713 -0.8840923 16.08525047 0 0 Z " fill="#E9CFF7" transform="translate(424,320)"/>
<path d="M0 0 C1.32 0.66 2.64 1.32 4 2 C2.5215127 3.18834574 1.04216207 4.37561734 -0.4375 5.5625 C-1.36046875 6.305 -2.2834375 7.0475 -3.234375 7.8125 C-4.84882432 9.08946557 -6.47800918 10.34891181 -8.140625 11.5625 C-19.12679039 19.61343036 -28.82512034 29.45699313 -36.25 40.875 C-36.69134277 41.55159668 -37.13268555 42.22819336 -37.58740234 42.92529297 C-40.55876649 47.7255487 -42.42676581 52.58788596 -44 58 C-44.495 56.515 -44.495 56.515 -45 55 C-45.66 55 -46.32 55 -47 55 C-40.53492461 31.07922105 -18.90210136 14.11852288 0 0 Z " fill="#3DA5D8" transform="translate(303,135)"/>
<path d="M0 0 C0 44.88 0 89.76 0 136 C-0.33 136 -0.66 136 -1 136 C-1 92.11 -1 48.22 -1 3 C-15.355 10.425 -15.355 10.425 -30 18 C-31.98 18.99 -33.96 19.98 -36 21 C-36.66 20.34 -37.32 19.68 -38 19 C-33.51628443 16.61493146 -29.03222602 14.23050917 -24.54785156 11.84667969 C-23.02301798 11.03598406 -21.4982775 10.2251133 -19.97363281 9.4140625 C-17.77954287 8.24693252 -15.58511662 7.08043702 -13.390625 5.9140625 C-12.7113092 5.55253082 -12.03199341 5.19099915 -11.33209229 4.81851196 C-9.55669109 3.8753039 -7.77848562 2.93737919 -6 2 C-5.22881836 1.58927246 -4.45763672 1.17854492 -3.66308594 0.75537109 C-2 0 -2 0 0 0 Z " fill="#7CD8EA" transform="translate(376,94)"/>
<path d="M0 0 C6.93529549 -0.15922872 13.63144161 0.22069254 20.5 1.1875 C21.41547607 1.31552002 22.33095215 1.44354004 23.27416992 1.57543945 C29.82876265 2.59197711 35.45344771 4.21758025 41 8 C41.33 7.01 41.66 6.02 42 5 C42.4125 5.42410156 42.825 5.84820312 43.25 6.28515625 C46.45080729 9.53597615 49.69412531 12.62623009 53.1875 15.5625 C55.65767448 17.67502374 57.58858085 19.61804533 59.3125 22.375 C60.79159062 25.27886877 60.79159062 25.27886877 64 26 C63.505 27.485 63.505 27.485 63 29 C62.01 29 61.02 29 60 29 C57 25.66666667 57 25.66666667 57 23 C56.41476563 22.73445313 55.82953125 22.46890625 55.2265625 22.1953125 C52.94080444 20.96822133 51.31372146 19.59032969 49.375 17.875 C35.19361242 6.77551527 17.4096394 3.37508988 0 1 C0 0.67 0 0.34 0 0 Z " fill="#BDA4F3" transform="translate(194,387)"/>
<path d="M0 0 C0 0.33 0 0.66 0 1 C-1.15411377 1.05534912 -2.30822754 1.11069824 -3.49731445 1.16772461 C-7.82685749 1.375985 -12.15624543 1.5873338 -16.4855957 1.79956055 C-18.35046437 1.89055725 -20.21537274 1.98074424 -22.08032227 2.07006836 C-38.04822128 1.35216053 -38.04822128 1.35216053 -52 5 C-54.91815502 5.40464295 -57.82144589 5.75459127 -60.75 6.0625 C-61.56210937 6.15337891 -62.37421875 6.24425781 -63.2109375 6.33789062 C-67.15809984 6.76539274 -71.0229564 7.12125133 -75 7 C-75 7.66 -75 8.32 -75 9 C-81.625 9.125 -81.625 9.125 -85 8 C-85.99 8 -86.98 8 -88 8 C-88.33 8.99 -88.66 9.98 -89 11 C-94.91260933 13.51858302 -101.70200108 13.23666802 -108 13 C-100.74944727 9.22788343 -93.0670959 7.40901554 -85.0625 6 C-84.11721436 5.83266357 -83.17192871 5.66532715 -82.19799805 5.49291992 C-54.92785706 0.82674026 -27.62161604 -0.28346014 0 0 Z " fill="#AB9BE5" transform="translate(401,376)"/>
<path d="M0 0 C1.9550735 0.01005846 3.91015205 0.0191792 5.86523438 0.02734375 C10.59778397 0.04911037 15.33008419 0.08347918 20.0625 0.125 C20.0625 0.455 20.0625 0.785 20.0625 1.125 C19.32016113 1.13958252 18.57782227 1.15416504 17.81298828 1.16918945 C-15.41608373 1.89111693 -47.73999165 6.10814662 -79.91796875 14.55859375 C-82.76621187 15.09286963 -84.26599814 15.13924264 -86.9375 14.125 C-86.6075 12.805 -86.2775 11.485 -85.9375 10.125 C-85.6075 10.785 -85.2775 11.445 -84.9375 12.125 C-84.12337646 11.94976807 -83.30925293 11.77453613 -82.47045898 11.59399414 C-73.71139424 9.71243551 -64.94965285 7.84443553 -56.17895508 6.01782227 C-54.72767387 5.71455734 -53.27682373 5.40922205 -51.82641602 5.10180664 C-34.36793108 1.40409127 -17.83641833 -0.16130538 0 0 Z " fill="#DDB3F6" transform="translate(172.9375,385.875)"/>
<path d="M0 0 C0.33 0 0.66 0 1 0 C1.11587901 8.27539035 1.20470646 16.55044147 1.25906086 24.82644272 C1.28514926 28.66941749 1.32053148 32.511837 1.37719727 36.35449219 C1.43154711 40.06333109 1.46142624 43.77163618 1.47438622 47.48084259 C1.48362104 48.89549413 1.50165527 50.31011661 1.52865028 51.72454071 C1.56496828 53.70636979 1.5670426 55.6887367 1.56762695 57.67089844 C1.57873001 58.79896912 1.58983307 59.92703979 1.60127258 61.08929443 C1 64 1 64 -1.32844543 66.26275635 C-7.31587867 70.15623115 -12.02124682 72.5307888 -19 74 C-19 74.66 -19 75.32 -19 76 C-23.95 76.99 -23.95 76.99 -29 78 C-26.54101264 74.31151897 -23.98730134 73.57993244 -20 72.125 C-15.4462941 70.43739471 -11.0769779 68.5861936 -6.73828125 66.39404297 C-5.40277222 65.72089554 -5.40277222 65.72089554 -4.0402832 65.03414917 C-3.03034302 64.52224533 -3.03034302 64.52224533 -2 64 C-1.98969254 63.30144394 -1.97938507 62.60288788 -1.96876526 61.88316345 C-1.870507 55.27771949 -1.76795423 48.67235751 -1.66066074 42.06705379 C-1.60565856 38.67176789 -1.55227692 35.2764731 -1.50268555 31.88110352 C-1.44550972 27.97143309 -1.38112922 24.0618968 -1.31640625 20.15234375 C-1.29969376 18.94166733 -1.28298126 17.73099091 -1.26576233 16.48362732 C-1.1681328 10.90025851 -0.98647113 5.50106853 0 0 Z " fill="#A9E6ED" transform="translate(376,274)"/>
<path d="M0 0 C0.495 0.99 0.495 0.99 1 2 C0.34 2.99 -0.32 3.98 -1 5 C-2.60336111 5.27218862 -4.21147227 5.52759562 -5.82910156 5.6953125 C-10.27956489 6.31993893 -14.56831481 7.74585541 -18.875 9 C-19.83664062 9.27328125 -20.79828125 9.5465625 -21.7890625 9.828125 C-26.22946952 10.78434077 -26.22946952 10.78434077 -30 13 C-30.07713861 15.80379552 -30.09043698 18.58328668 -30.0625 21.38671875 C-30.05391181 23.19433535 -30.04545411 25.00195257 -30.03710938 26.80957031 C-30.03090576 27.76851196 -30.02470215 28.72745361 -30.01831055 29.7154541 C-29.91755701 46.06909717 -30.02664186 62.40266398 -30.5 78.75 C-30.52400879 79.58099213 -30.54801758 80.41198425 -30.57275391 81.26815796 C-30.70689653 85.84571805 -30.84940744 90.42294726 -31 95 C-31.33 95 -31.66 95 -32 95 C-32 66.95 -32 38.9 -32 10 C-27.26173994 8.22315248 -22.7869337 6.56362764 -17.96875 5.17578125 C-16.91171875 4.86962891 -15.8546875 4.56347656 -14.765625 4.24804688 C-13.68796875 3.93931641 -12.6103125 3.63058594 -11.5 3.3125 C-9.83710938 2.83200195 -9.83710938 2.83200195 -8.140625 2.34179688 C-5.42788294 1.55837568 -2.71434315 0.7778521 0 0 Z " fill="#4CA9D8" transform="translate(409,150)"/>
<path d="M0 0 C0 0.33 0 0.66 0 1 C0.80107178 1.02505615 1.60214355 1.0501123 2.42749023 1.07592773 C6.09762026 1.19279735 9.76755017 1.31510745 13.4375 1.4375 C14.69755859 1.47681641 15.95761719 1.51613281 17.25585938 1.55664062 C23.88901607 1.78178694 30.4170589 2.14758434 37 3 C37 3.33 37 3.66 37 4 C29.5167937 4.78292703 22.16997063 5.05730275 14.64868164 4.93432617 C-2.78817478 4.65080954 -19.10329634 5.3875709 -35.34765625 12.109375 C-38 13 -38 13 -41 12 C-34.49184305 8.34335511 -28.91904604 5.48962757 -21.3984375 5.13671875 C-18.83760926 4.9907432 -16.44673463 4.58888518 -13.9375 4.0625 C-13.20402344 3.90910156 -12.47054688 3.75570313 -11.71484375 3.59765625 C-9.78343978 3.14806434 -9.78343978 3.14806434 -9 1 C-5.8035914 -0.06546953 -3.34252724 -0.07427838 0 0 Z " fill="#CBB1F9" transform="translate(322,383)"/>
<path d="M0 0 C0.33 0 0.66 0 1 0 C1.09377259 19.63103056 0.81801254 39.25452457 0.53643799 58.88287354 C0.47493633 63.19468573 0.41529174 67.50652362 0.35546875 71.81835938 C0.23874794 80.21226509 0.12004392 88.60614115 0 97 C-0.99 97.495 -0.99 97.495 -2 98 C-2.02313662 87.60384149 -2.04092185 77.20768907 -2.05181217 66.81151009 C-2.0570381 61.98451963 -2.06413052 57.15754675 -2.07543945 52.33056641 C-2.0862786 47.67514752 -2.09227903 43.01974556 -2.09487724 38.36431503 C-2.09672963 36.58525196 -2.1003467 34.80618984 -2.10573006 33.02713394 C-2.11295409 30.54166893 -2.11399036 28.05627454 -2.11352539 25.57080078 C-2.11712067 24.82993225 -2.12071594 24.08906372 -2.12442017 23.32574463 C-2.11405216 18.22810432 -2.11405216 18.22810432 -1 16 C-0.7677354 13.28737884 -0.58063765 10.59226874 -0.4375 7.875 C-0.39431641 7.12089844 -0.35113281 6.36679688 -0.30664062 5.58984375 C-0.2005168 3.72678112 -0.09974999 1.86341476 0 0 Z " fill="#8287E2" transform="translate(103,176)"/>
<path d="M0 0 C0.66 0 1.32 0 2 0 C1.67 21.45 1.34 42.9 1 65 C0.34 65 -0.32 65 -1 65 C-1.02312684 56.67271053 -1.04091683 48.34543437 -1.05181217 40.01812077 C-1.05704026 36.15179882 -1.06413654 32.28549879 -1.07543945 28.41918945 C-1.086271 24.69096599 -1.0922774 20.96276366 -1.09487724 17.23452568 C-1.09673101 15.80910344 -1.10035071 14.38368241 -1.10573006 12.95826912 C-1.11294393 10.96836592 -1.11340808 8.97844166 -1.11352539 6.98852539 C-1.115746 5.85379288 -1.11796661 4.71906036 -1.12025452 3.54994202 C-1 1 -1 1 0 0 Z " fill="#9CEEFA" transform="translate(134,94)"/>
<path d="M0 0 C0.33 0.99 0.66 1.98 1 3 C0.0615625 3.78246094 -0.876875 4.56492187 -1.84375 5.37109375 C-3.06262822 6.39307626 -4.28137128 7.41521999 -5.5 8.4375 C-6.12003906 8.95376953 -6.74007813 9.47003906 -7.37890625 10.00195312 C-8.93802716 11.31264268 -10.47128281 12.65397292 -12 14 C-12 14.33 -12 14.66 -12 15 C-10.9275 14.484375 -9.855 13.96875 -8.75 13.4375 C-5.74745101 11.99396683 -4.16753501 11.94181906 -1 13 C-2.37671875 13.72703125 -2.37671875 13.72703125 -3.78125 14.46875 C-11.22150937 18.49796156 -17.42200041 22.48655949 -23 29 C-24 27 -24 27 -23.4765625 24.8359375 C-21.38893953 20.82637593 -18.48897128 17.87152382 -15.375 14.625 C-14.74706543 13.96105225 -14.11913086 13.29710449 -13.47216797 12.61303711 C-9.20517158 8.14308614 -4.83578888 3.85962032 0 0 Z " fill="#95D9E7" transform="translate(282,384)"/>
<path d="M0 0 C3.61298662 1.38536643 7.03030379 2.97715984 10.46484375 4.7578125 C11.50648682 5.29768799 12.54812988 5.83756348 13.62133789 6.39379883 C14.71567139 6.96509521 15.81000488 7.5363916 16.9375 8.125 C18.05310303 8.70596436 19.16870605 9.28692871 20.31811523 9.88549805 C28.32362727 14.07459778 36.22524397 18.39634303 44 23 C43.505 24.485 43.505 24.485 43 26 C41.97261719 25.41992188 40.94523437 24.83984375 39.88671875 24.2421875 C26.05907857 16.41361244 26.05907857 16.41361244 12.02734375 8.9609375 C11.340354 8.60523682 10.65336426 8.24953613 9.94555664 7.88305664 C8.58829215 7.18129921 7.2268949 6.48746536 5.86108398 5.80249023 C1.11217767 3.336533 1.11217767 3.336533 0 0 Z " fill="#B2F6F8" transform="translate(138,95)"/>
<path d="M0 0 C0.66 0.33 1.32 0.66 2 1 C-6.63722556 8.90785984 -6.63722556 8.90785984 -10.4375 11.3125 C-13.21821686 12.90501564 -13.21821686 12.90501564 -15 16 C-14.24074219 15.62746094 -13.48148437 15.25492187 -12.69921875 14.87109375 C-11.70535156 14.39800781 -10.71148437 13.92492187 -9.6875 13.4375 C-8.70136719 12.96183594 -7.71523438 12.48617188 -6.69921875 11.99609375 C-4 11 -4 11 -1 12 C-8.50216497 15.92783506 -15.96613308 19.31150123 -24 22 C-24 19 -24 19 -22.3046875 17.08984375 C-15.23676485 10.8287097 -7.76497147 5.35939673 0 0 Z " fill="#8B9DE0" transform="translate(294,378)"/>
<path d="M0 0 C7.60284385 0.35561689 14.64343461 1.23390943 21.98828125 3.234375 C26.93329901 4.4914742 31.95830876 5.24017065 37 6 C37 6.33 37 6.66 37 7 C36.12859375 6.9278125 35.2571875 6.855625 34.359375 6.78125 C26.55200382 6.17288341 18.829937 5.8709351 11 6 C11 5.67 11 5.34 11 5 C-0.385 4.505 -0.385 4.505 -12 4 C-12 3.67 -12 3.34 -12 3 C-4.08 2.505 -4.08 2.505 4 2 C2.68 1.34 1.36 0.68 0 0 Z " fill="#AD8CE8" transform="translate(181,382)"/>
<path d="M0 0 C1.9550735 0.01005846 3.91015205 0.0191792 5.86523438 0.02734375 C10.59778397 0.04911037 15.33008419 0.08347918 20.0625 0.125 C20.0625 0.455 20.0625 0.785 20.0625 1.125 C19.28874023 1.14481934 18.51498047 1.16463867 17.71777344 1.18505859 C-2.48321943 1.68578998 -2.48321943 1.68578998 -22.59277344 3.55224609 C-27.60290371 4.16050826 -31.9466654 3.92578928 -36.9375 3.125 C-36.9375 2.795 -36.9375 2.465 -36.9375 2.125 C-24.58800151 -0.00592212 -12.50187913 -0.11306196 0 0 Z " fill="#C3A0FA" transform="translate(172.9375,385.875)"/>
<path d="M0 0 C0 1.32 0 2.64 0 4 C-6.625 4.125 -6.625 4.125 -10 3 C-10.99 3 -11.98 3 -13 3 C-13.33 3.99 -13.66 4.98 -14 6 C-19.91260933 8.51858302 -26.70200108 8.23666802 -33 8 C-23.31079143 2.99426697 -10.92869678 -0.43798212 0 0 Z " fill="#A390E3" transform="translate(326,381)"/>
<path d="M0 0 C7.17480397 1.30858751 14.1296512 3.07159003 21.125 5.125 C22.08148438 5.40214844 23.03796875 5.67929688 24.0234375 5.96484375 C26.35005287 6.63956221 28.67551422 7.3179883 31 8 C30.67 8.99 30.34 9.98 30 11 C21.91166888 8.90065714 13.88751068 6.77706105 6 4 C4.824375 3.608125 3.64875 3.21625 2.4375 2.8125 C1.633125 2.544375 0.82875 2.27625 0 2 C0 1.34 0 0.68 0 0 Z " fill="#A7B8ED" transform="translate(103,151)"/>
<path d="M0 0 C3.54773386 2.81028356 6.84468825 5.43205566 9.25 9.3125 C10.78051622 12.2726375 10.78051622 12.2726375 14 13 C13.67 13.99 13.34 14.98 13 16 C12.01 16 11.02 16 10 16 C7 12.66666667 7 12.66666667 7 10 C6.46375 9.773125 5.9275 9.54625 5.375 9.3125 C2.21499137 7.56617944 -0.2676983 5.3597151 -3 3 C-2.01 2.67 -1.02 2.34 0 2 C0 1.34 0 0.68 0 0 Z " fill="#ACBCEB" transform="translate(244,400)"/>
<path d="M0 0 C0 0.33 0 0.66 0 1 C0.80107178 1.02505615 1.60214355 1.0501123 2.42749023 1.07592773 C6.09762026 1.19279735 9.76755017 1.31510745 13.4375 1.4375 C14.69755859 1.47681641 15.95761719 1.51613281 17.25585938 1.55664062 C23.88901607 1.78178694 30.4170589 2.14758434 37 3 C37 3.33 37 3.66 37 4 C31.06 4.495 31.06 4.495 25 5 C25 4.67 25 4.34 25 4 C13.78 3.67 2.56 3.34 -9 3 C-9 2.34 -9 1.68 -9 1 C-5.8035914 -0.06546953 -3.34252724 -0.07427838 0 0 Z " fill="#C6A2F0" transform="translate(322,383)"/>
<path d="M0 0 C12.40260013 -0.36758529 23.86209114 0.38902857 36 3 C36 3.33 36 3.66 36 4 C30.05207127 5.2089286 25.0733874 4.64779964 19.125 3.625 C17.41954977 3.34465202 15.71382069 3.06599492 14.0078125 2.7890625 C12.7688623 2.58651855 12.7688623 2.58651855 11.50488281 2.37988281 C7.68072105 1.79992222 3.84720953 1.39637916 0 1 C0 0.67 0 0.34 0 0 Z " fill="#DEB4F7" transform="translate(350,387)"/>
<path d="M0 0 C-2.17935564 2.17935564 -3.8232167 2.909067 -6.6484375 4.09375 C-7.57140625 4.48433594 -8.494375 4.87492187 -9.4453125 5.27734375 C-10.41210938 5.68082031 -11.37890625 6.08429688 -12.375 6.5 C-14.27908275 7.30104557 -16.18274479 8.10309207 -18.0859375 8.90625 C-18.9320459 9.26009766 -19.7781543 9.61394531 -20.64990234 9.97851562 C-22.9904075 10.95857867 -22.9904075 10.95857867 -25.11962891 12.13085938 C-27 13 -27 13 -30 13 C-30 12.34 -30 11.68 -30 11 C-26.2152734 9.26024971 -22.42503467 7.53333548 -18.62915039 5.81811523 C-17.33849333 5.23275122 -16.04941189 4.64390018 -14.76196289 4.05151367 C-12.91174404 3.2009121 -11.05623256 2.36298661 -9.19921875 1.52734375 C-7.52605591 0.76538696 -7.52605591 0.76538696 -5.8190918 -0.01196289 C-3 -1 -3 -1 0 0 Z " fill="#A7E2EC" transform="translate(347,352)"/>
<path d="M0 0 C5.06998019 0.65419099 9.41990777 2.8546409 14 5 C14.33 4.01 14.66 3.02 15 2 C17.64 4.64 20.28 7.28 23 10 C22.67 10.66 22.34 11.32 22 12 C14.66666667 8.33333333 7.33333333 4.66666667 0 1 C0 0.67 0 0.34 0 0 Z " fill="#9A93E1" transform="translate(221,390)"/>
<path d="M0 0 C0 0.66 0 1.32 0 2 C-2.56035921 3.46220279 -5.1231356 4.91985153 -7.6875 6.375 C-8.40873047 6.7875 -9.12996094 7.2 -9.87304688 7.625 C-13.51007651 9.68432272 -17.05233788 11.58289052 -21 13 C-19.8484265 9.54527951 -19.30376868 9.28676063 -16.2890625 7.51953125 C-15.53882813 7.07802734 -14.78859375 6.63652344 -14.015625 6.18164062 C-13.22671875 5.72982422 -12.4378125 5.27800781 -11.625 4.8125 C-10.45324219 4.11737305 -10.45324219 4.11737305 -9.2578125 3.40820312 C-3.39510079 0 -3.39510079 0 0 0 Z " fill="#5CC7ED" transform="translate(338,115)"/>
<path d="M0 0 C0 0.33 0 0.66 0 1 C-18.82004556 4.44419134 -18.82004556 4.44419134 -28 4 C-19.29024031 -0.6898706 -9.64335813 -0.25011592 0 0 Z " fill="#CEABF5" transform="translate(144,389)"/>
<path d="M0 0 C1.32 0.66 2.64 1.32 4 2 C-5.22551253 9.66742597 -5.22551253 9.66742597 -11 11 C-9.52202738 7.32943063 -7.52384523 5.58914217 -4.375 3.25 C-3.55773437 2.63640625 -2.74046875 2.0228125 -1.8984375 1.390625 C-0.95871094 0.70226562 -0.95871094 0.70226562 0 0 Z " fill="#44B5E1" transform="translate(303,135)"/>
<path d="M0 0 C0.66 0 1.32 0 2 0 C2.2954439 5.02254631 1.98514628 7.89542386 -1 12 C-1.99 11.67 -2.98 11.34 -4 11 C-3.71758359 9.53984709 -3.42373386 8.08190207 -3.125 6.625 C-2.96257812 5.81289062 -2.80015625 5.00078125 -2.6328125 4.1640625 C-2 2 -2 2 0 0 Z " fill="#87DAEA" transform="translate(254,194)"/>
<path d="M0 0 C0.99 0 1.98 0 3 0 C2.37321829 3.66172475 1.35548154 6.8818995 -0.0625 10.3125 C-0.42472656 11.19550781 -0.78695313 12.07851562 -1.16015625 12.98828125 C-1.43730469 13.65214844 -1.71445312 14.31601563 -2 15 C-2.33 14.01 -2.66 13.02 -3 12 C-3.66 12 -4.32 12 -5 12 C-3.68938409 7.76570244 -2.05643741 3.92592596 0 0 Z " fill="#46B1DD" transform="translate(261,178)"/>
<path d="M0 0 C0 0.33 0 0.66 0 1 C-2.64 1 -5.28 1 -8 1 C-8 1.66 -8 2.32 -8 3 C-13.68697571 3.91397824 -18.31302429 3.91397824 -24 3 C-24 2.67 -24 2.34 -24 2 C-15.97649696 0.81603117 -8.13544686 -0.28545428 0 0 Z " fill="#BE9CF0" transform="translate(160,386)"/>
<path d="M0 0 C-1.90726751 1.20253816 -3.8262012 2.38658949 -5.75 3.5625 C-6.81734375 4.22378906 -7.8846875 4.88507813 -8.984375 5.56640625 C-12 7 -12 7 -14.390625 6.71484375 C-14.92171875 6.47894531 -15.4528125 6.24304688 -16 6 C-11.32764648 1.89399236 -6.34675212 -2.04151545 0 0 Z " fill="#B6B6F5" transform="translate(281,397)"/>
<path d="M0 0 C0.66 0 1.32 0 2 0 C2.87890625 6.15234375 2.87890625 6.15234375 3 8 C2.67 8.33 2.34 8.66 2 9 C1.76807135 10.51469448 1.58784762 12.03754562 1.4375 13.5625 C1.35371094 14.38878906 1.26992188 15.21507812 1.18359375 16.06640625 C1.12300781 16.70449219 1.06242187 17.34257812 1 18 C0.67 18 0.34 18 0 18 C-0.19384179 15.18780295 -0.38036603 12.37545804 -0.5625 9.5625 C-0.61857422 8.76005859 -0.67464844 7.95761719 -0.73242188 7.13085938 C-0.8616295 5.08937889 -0.9351273 3.04453631 -1 1 C-0.67 0.67 -0.34 0.34 0 0 Z " fill="#5FC3E3" transform="translate(256,190)"/>
<path d="M0 0 C0.66 0.33 1.32 0.66 2 1 C2 1.66 2 2.32 2 3 C-0.3359375 4.7265625 -0.3359375 4.7265625 -3.375 6.625 C-4.37273437 7.25664062 -5.37046875 7.88828125 -6.3984375 8.5390625 C-9 10 -9 10 -11 10 C-9.73459948 6.20379845 -8.21781569 5.51321812 -4.9375 3.3125 C-4.01839844 2.68988281 -3.09929687 2.06726563 -2.15234375 1.42578125 C-1.44207031 0.95527344 -0.73179687 0.48476562 0 0 Z " fill="#4FC0E8" transform="translate(316,126)"/>
<path d="M0 0 C-3.64859761 3.04049801 -7.7444533 4.96518762 -12 7 C-12.66 6.34 -13.32 5.68 -14 5 C-12.23628182 3.96692229 -10.46374967 2.94887951 -8.6875 1.9375 C-7.70136719 1.36902344 -6.71523438 0.80054687 -5.69921875 0.21484375 C-3 -1 -3 -1 0 0 Z " fill="#67CEEE" transform="translate(352,108)"/>
<path d="M0 0 C3 1 3 1 4.38671875 3.28515625 C4.81597656 4.20167969 5.24523437 5.11820313 5.6875 6.0625 C6.34298828 7.44115234 6.34298828 7.44115234 7.01171875 8.84765625 C7.33785156 9.55792969 7.66398437 10.26820313 8 11 C7.01 11 6.02 11 5 11 C4.01 9.02 3.02 7.04 2 5 C1.34 5.66 0.68 6.32 0 7 C0 4.69 0 2.38 0 0 Z " fill="#99E3F4" transform="translate(410,153)"/>
<path d="M0 0 C6.40629424 -0.20852314 11.92972642 -0.1583195 18 2 C18 2.33 18 2.66 18 3 C11.71739294 3.23268915 6.11980533 2.40454548 0 1 C0 0.67 0 0.34 0 0 Z " fill="#EDC5F8" transform="translate(381,391)"/>
<path d="M0 0 C0.598125 0.639375 1.19625 1.27875 1.8125 1.9375 C3.90810337 4.20310389 3.90810337 4.20310389 7 5 C6.67 5.99 6.34 6.98 6 8 C5.01 8 4.02 8 3 8 C0 4.66666667 0 4.66666667 0 2 C-0.66 1.67 -1.32 1.34 -2 1 C-1.34 0.67 -0.68 0.34 0 0 Z " fill="#ABDAEF" transform="translate(251,408)"/>
<path d="M0 0 C4.13405862 0.6079498 7.38204235 1.90962447 11 4 C11.99 5.485 11.99 5.485 13 7 C8.1725201 5.58707905 4.2837641 3.57025846 0 1 C0 0.67 0 0.34 0 0 Z " fill="#8CD6E8" transform="translate(203,370)"/>
<path d="M0 0 C0.99 0.33 1.98 0.66 3 1 C0.36 3.64 -2.28 6.28 -5 9 C-5.33 8.34 -5.66 7.68 -6 7 C-4.02 4.69 -2.04 2.38 0 0 Z " fill="#B0DEF6" transform="translate(264,404)"/>
<path d="M0 0 C0.66 0.99 1.32 1.98 2 3 C-1.63 3 -5.26 3 -9 3 C-9 2.34 -9 1.68 -9 1 C-5.73842267 -0.08719244 -3.41589896 -0.29071481 0 0 Z " fill="#B798EA" transform="translate(322,383)"/>
<path d="M0 0 C-3.28804981 2.91227269 -5.59885603 4.49701212 -10 5 C-10 4.34 -10 3.68 -10 3 C-3.375 -1.125 -3.375 -1.125 0 0 Z " fill="#75D7F2" transform="translate(361,103)"/>
<path d="M0 0 C3.36939433 0.33693943 5.42910583 1.88819408 8 4 C3.82412255 5.39195915 1.86525224 3.82323219 -2 2 C-1.34 1.34 -0.68 0.68 0 0 Z " fill="#66DAE6" transform="translate(147,343)"/>
<path d="M0 0 C0.66 0 1.32 0 2 0 C1.40072174 3.35595828 0.15377564 5.37801226 -2 8 C-2.6875 6.25 -2.6875 6.25 -3 4 C-1.6875 1.75 -1.6875 1.75 0 0 Z " fill="#9EE2ED" transform="translate(254,194)"/>
<path d="M0 0 C5.75 1.75 5.75 1.75 8 4 C6 5 6 5 4.0546875 4.44140625 C3.33539063 4.15136719 2.61609375 3.86132812 1.875 3.5625 C1.15054688 3.27503906 0.42609375 2.98757813 -0.3203125 2.69140625 C-1.15175781 2.34916016 -1.15175781 2.34916016 -2 2 C-1.34 1.34 -0.68 0.68 0 0 Z " fill="#6CDAE7" transform="translate(161,349)"/>
<path d="M0 0 C0 0.66 0 1.32 0 2 C-5.75 5 -5.75 5 -8 5 C-8 4.34 -8 3.68 -8 3 C-5.09451118 0.95830515 -3.59857954 0 0 0 Z " fill="#67CDEF" transform="translate(338,115)"/>
<path d="M0 0 C0.99 0.33 1.98 0.66 3 1 C1.25 3.0625 1.25 3.0625 -1 5 C-3.25 4.75 -3.25 4.75 -5 4 C-2.6875 1.9375 -2.6875 1.9375 0 0 Z " fill="#A7ABE8" transform="translate(270,399)"/>
<path d="M0 0 C1.65 1.65 3.3 3.3 5 5 C3.02 5 1.04 5 -1 5 C-0.67 3.35 -0.34 1.7 0 0 Z " fill="#8D9AE0" transform="translate(235,392)"/>
</svg>
